<svg id="Layer_1" data-name="Layer 1" xmlns="http://www.w3.org/2000/svg" viewBox="0 0 500 500">
  <g id="Athlone_Stadium" data-name="Athlone Stadium">
    <path fill="#56175c" d="M173.7,347.86c-37.28-.54-75.82-2.46-121.31-6.05-2.44-.19-8.92-.7-8.89-7.95l.14-37.8c0-1.51.02-6.11,4.51-8.66l6.28-3.58,6.33-82.1c-1.48-.24-2.94-.34-4.28-.43-3.85-.26-9.12-.63-9.44-6.09l-1.97-33.24c-.15-2.59.85-4.23,1.71-5.15,1.24-1.32,3.04-2.05,5.07-2.05.34,0,.69.02,1.03.06l39.2,4.71c1.02.12,3.54.54,5.03,1.75,1.99,1.62,2.31,5.3,2.05,6.9l-4.63,28.03c-.03.21-.06.47-.08.76-.18,1.87-.66,6.85-5.14,7.11-.88.05-1.78.08-2.74.08-2.16,0-4.29-.13-6.5-.28l-.26,45.44c21.36-24.41,46.78-39.64,73.95-44.24,4.12-.68,8.2-1.02,12.14-1.02,7.83,0,15.32,1.35,22.27,4,14.28,5.45,21.78,11.76,29.96,21.69,5.34-6.26,10.74-11.1,16.78-15.07,19.38-12.76,42.36-19.23,68.29-19.23,8.25,0,16.95.65,25.88,1.95,21.46,3.15,42.03,11.06,61.15,23.49,11.38,7.4,21.37,16.52,30.36,27.74l-.08-47.93-6.52.56c-.56.05-1.1.07-1.58.07-1.97,0-3.34-.4-4.33-1.26-1.61-1.41-2.26-3.74-2.52-5.45l-4.73-30.91c-.23-1.49.19-4.52,1.54-6.09,1.45-1.68,4.26-2.13,5.4-2.25l40.73-4.24c.2-.02.4-.03.6-.03,1.78,0,3.55.79,4.85,2.17,1.27,1.34,1.91,3.03,1.81,4.77l-1.78,31.5c-.09,1.67-.38,6.76-5.55,7.66l-8.33,1.44,5.85,85.94,6.98,4.15c2.25,1.34,3.5,4.84,3.5,6.74l.08,39.59c0,3.33-3.07,6.66-6.45,6.99-33.71,3.26-66.94,5.09-101.57,5.6l-43.9.65-60.98.55-69.9-1.01ZM236.54,288.66c5.2,0,10.6.17,16.51.52l2.75.16.22,8.53.72,34.56c.01.65.05,1.24.11,1.76l12.45-.08-.51-22.95c-.05-2.34-.12-4.67-.18-7.01-.24-8.58-.48-17.45-.09-26l-30.15-1.58c-1.98-.1-4.06-.16-6.19-.16-7.8,0-15.7.69-23.33,1.37-1.14.1-2.28.2-3.42.3l-.75,55.8,12.41.1.42-27.17.47-17.43,2.73-.18c5.37-.35,10.55-.52,15.83-.52ZM332.75,319.05c24.33,0,48.97.55,75.33,1.68l27.1,2.32.13-15.48c-20.56-5.99-41.24-10-63.13-12.25h-.12c-18.48-2.66-34.1-3.89-49.13-3.89-4.2,0-8.41.1-12.52.3l-25.17,1.21.05,3.01,54.48.15.28,20.55-3.14-.11c-11.58-.39-21-.57-29.66-.57-7.58,0-14.69.14-21.63.42l-.05,3.08,29.81-.33c5.74-.06,11.59-.09,17.36-.09ZM102.48,318.09l-2.82.24c-7.35.63-14.56,1.44-22.01,2.5,10.77-1.04,20.97-1.48,30.62-1.77l21.07-.64c4.62-.14,9.34-.21,14.45-.21,11.93,0,23.54.37,35.84.77,2.86.09,5.73.18,8.62.27l.04-2.55c-12.91-.86-22.9-1.23-32.95-1.23h-3.48s-.21-19.86-.21-19.86l36.93.22.05-2.63-15.08-1.14c-6.86-.52-12.99-.77-18.72-.77-5.33,0-10.28.21-15.15.65-12.55,1.13-23.22,2.5-33.57,4.32-14.04,2.46-27.26,6.29-41.68,10.69l-.02,1.63,16.7-4c5.58-1.34,10.64-2.29,17.49-3.48l3.42-.6.47,17.6ZM178.37,249.76c-11.51,0-23.12,1.7-34.51,5.04-15.42,4.53-29.51,10.48-43.07,18.19l-6.55,3.73c-4.75,2.7-9.27,5.52-13.62,8.5.03-.01.05-.02.08-.04,2.89-1.38,5.81-2.78,8.73-4.18,31.34-15.06,63.73-30.63,98.61-30.85-3.24-.26-6.47-.39-9.67-.39ZM290.07,243.05c27.24,0,55.92,6.8,87.67,20.8,7.72,3.4,15.56,7.04,23.64,10.97-29.84-17.93-67.75-33.76-108.57-33.76-4.92,0-9.85.24-14.65.71-18.06,1.78-36.7,5.8-56.94,12.29.53.09,1.06.19,1.59.28l14.35-3.81,23.49-4.64c9.51-1.88,19.41-2.83,29.41-2.83ZM415.96,265.75c-1.96-2.85-4.04-5.67-6.29-8.54l-5.6,1.3,11.88,7.24ZM84.81,264.83l.41-.24-.19-.07c-.07.1-.14.21-.21.31ZM93.13,256.97l.38-2.89c-.7.73-1.4,1.48-2.09,2.27l1.71.62ZM103.11,254.75l4-2-3.63-2.51-.37,4.51ZM394.86,250.59l7.29-1.83c-2.72-2.85-5.35-5.31-8.18-7.63l.89,9.46ZM384.66,248.45l-.54-8.79-8.37,4.7,8.91,4.09ZM123.7,245.53l6.84-2.52-5.8-5.73-1.04,8.26ZM113.65,244.95l1.27-8.92c-2.26,1.52-4.55,3.18-7.06,5.11l5.8,3.81ZM147.36,238.12l8.34-1.74-5.69-8.17-2.64,9.91ZM206.05,237.23c-1.1-1.26-2.25-2.51-3.48-3.8l-2.85,2.7,6.33,1.1ZM357.75,237.21l-1.6-11.14-9.05,7.87,10.64,3.26ZM368.15,236.7l10.97-6.25c-4.68-2.79-8.86-5.02-12.88-6.87l1.91,13.13ZM235.22,231.81c-1.42,1.36-2.76,2.7-4.05,4.06l6.82-1.93-2.77-2.13ZM137.52,235.26c1.24-4.38,2.24-8.23,3.23-12.28-3.5,1.15-7.08,2.6-11.09,4.5l7.85,7.78ZM172.87,234.55l7.5-.24-3.39-7.44-4.12,7.67ZM190.35,230.91l4.02-4.22c-2.78-1.77-5.27-3.09-7.79-4.12l3.77,8.34ZM163.7,229.88l6.05-11.41c-1.62-.19-3.28-.28-4.94-.28-2.79,0-5.64.26-8.52.79l7.41,10.91ZM328.91,229.59l-3.61-11.66-8.35,9.8,11.97,1.86ZM257.97,229.53l9.33-1.42-5.87-6.93-3.46,8.34ZM247.22,228.42l2.89-6.9c-2.23,1.14-4.45,2.42-6.83,3.93l3.94,2.98ZM339.11,226.97l11.29-9.86c-5.16-1.85-10.19-3.12-15.57-4.18l4.28,14.04ZM286.26,226.4l11.26-.13-5.74-10.06-5.51,10.19ZM276.31,222.68l6.03-11.58c-4.68.72-9.08,1.68-13.29,2.9l7.26,8.68ZM307.55,222.21l9.99-12.12c-4.32-.53-8.49-.79-12.62-.79-1.54,0-3.08.03-4.65.1l7.29,12.81Z"></path>
    <path fill="#dcb456" d="M48.07,161.79c-.18-3.09,2.11-4.26,4.46-3.98l39.2,4.71c1.18.14,2.81.54,3.49,1.1.78.64,1.18,2.93.99,4.09l-4.63,28.04c-.25,1.51-.11,5.23-2.44,5.37-3.92.23-7.79-.13-12.05-.43l-.32,57c19.9-25.03,45.86-44.27,77.5-49.62,11.21-1.84,22.36-1.18,32.84,2.82,14.24,5.44,21.54,11.62,31,23.64,5.44-6.81,11.3-12.6,18.46-17.31,27.61-18.18,59.62-21.52,92.09-16.82,21.61,3.18,41.63,11.13,59.95,23.04,13.86,9.02,25.21,20.4,35.01,34.21l-.11-60.18-9.77.83c-1.17.1-2.98.15-3.68-.46-.88-.77-1.34-2.39-1.53-3.65l-4.73-30.91c-.15-.97.27-3.02.85-3.68.57-.66,2.23-1.1,3.44-1.23l40.73-4.24c1.94-.2,4.08,1.65,3.97,3.76l-1.78,31.5c-.13,2.22-.49,4.42-3.07,4.87l-11,1.91,6.14,90.21,8.33,4.96c1.06.63,2.03,2.94,2.04,4.17l.08,39.59c0,1.82-1.97,3.82-3.74,4-33.87,3.27-67.25,5.08-101.33,5.59l-43.9.65-60.93.55-69.86-1.01c-40.7-.59-80.66-2.85-121.11-6.04-3.3-.26-6.14-.85-6.13-4.95l.14-37.8c.01-2.74.74-4.78,2.99-6.07l7.67-4.37,6.65-86.29c-6.96-1.99-13.65.15-13.92-4.33l-1.97-33.24ZM444.15,165.84c-.32-2.67-2.9-2.53-4.45-1.83-1.06.48-1.83,2.39-1.36,4.05.43,1.53,2.83,2.08,4.06,1.52.96-.43,1.92-2.4,1.75-3.75ZM432.42,164.81c-1.81.32-2.93,2.26-2.54,3.81.32,1.27,2.08,2.37,3.18,2.13,1.56-.34,2.68-1.96,2.57-3.28-.13-1.58-1.47-2.97-3.21-2.66ZM422.57,166.09c-1.57.91-1.7,3.5-.69,4.57.69.73,2.6.97,3.75.4,1.04-.52,1.48-2.78,1.04-3.84-.56-1.37-2.41-2.12-4.1-1.13ZM413.93,166.67c-1.59.7-2.01,3.03-1.29,4.45.63,1.24,2.9,1.76,4.35.92,1.15-.67,1.6-2.84.91-4.28-.49-1.03-2.59-1.7-3.97-1.1ZM57.19,167.42c-1.65.74-1.87,3.18-.94,4.58.74,1.12,2.93,1.77,4.26.91,1.23-.8,1.62-3.06.94-4.2-.72-1.21-2.85-1.91-4.25-1.28ZM66.06,168.69c-1.4.63-1.77,3.07-1.11,4.19.73,1.24,2.96,1.81,4.16,1.04,1.15-.74,1.51-2.94.87-4.26-.46-.94-2.62-1.55-3.92-.97ZM74.21,170.12c-1.32.93-1.18,3.46-.26,4.43.74.78,2.92,1.01,3.76.31,1.05-.87,1.36-2.94.81-4.13-.47-1.01-2.98-1.55-4.32-.61ZM83.2,170.66c-1.63.53-2.1,3.14-1.15,4.64.6.94,2.58,1.41,3.78.78,1.15-.61,1.78-2.59,1.39-3.93-.36-1.26-2.43-2.01-4.02-1.48ZM440.05,173.03c-1.68.62-2.15,2.87-1.42,4.32.46.91,2.39,1.54,3.6.9.91-.48,1.48-2.3,1.27-3.66-.16-1.03-2.14-2.04-3.45-1.56ZM432.91,173.77c-1.79.47-2.72,2.08-2.57,3.22.16,1.2,1.79,2.49,2.77,2.3,1.41-.28,2.47-1.66,2.58-2.92.09-1-1.63-2.9-2.79-2.6ZM423.43,175.05c-1.26.61-1.63,2.86-.93,4.02.66,1.08,2.82,1.51,3.72.81,1.17-.91,1.68-2.91,1.14-3.87-.69-1.25-2.5-1.66-3.93-.97ZM414.26,180c.57.96,2.97,1.25,3.79.66.87-.63,1.4-2.44,1.14-3.4-.36-1.32-2.05-2.34-3.43-1.86-1.78.61-2.29,3.29-1.5,4.61ZM58.4,176.36c-2.08.69-2.41,2.78-1.77,4.19.41.91,2.33,1.64,3.63,1.28,1.09-.3,1.87-2.39,1.49-3.74-.27-.95-2.24-2.1-3.36-1.73ZM66.1,177.52c-1.5.6-1.94,2.86-1.18,4.14.56.94,2.81,1.45,3.84.87s1.57-2.83,1.05-3.8c-.53-1-2.5-1.69-3.71-1.21ZM74.35,178.67c-1.32.65-1.82,2.66-1.28,3.79.44.91,2.58,1.49,3.62.93.89-.48,1.29-2.54.94-3.59-.27-.83-2.34-1.6-3.28-1.13ZM81.87,179.55c-1.52.93-1.61,3.48-.84,4.37.65.75,2.61,1.03,3.6.45.93-.55,1.55-2.73,1.06-3.69-.51-1.02-2.68-1.82-3.83-1.12ZM440.73,181.34c-1.77.28-2.81,1.76-2.76,3.23.04,1.39,1.74,2.5,3.3,2.29,1.08-.14,2.2-1.91,2.16-3.29-.02-.96-1.58-2.41-2.7-2.23ZM432.4,182.49c-1.43.57-1.99,2.55-1.48,3.84.37.92,2.45,1.42,3.66.87.91-.42,1.3-2.22.99-3.41-.23-.85-2.16-1.7-3.17-1.29ZM424.81,183.25c-1.48.49-2.27,2.34-1.87,3.61s2.23,2.03,3.48,1.5c1.19-.49,1.97-2.22,1.64-3.47-.29-1.07-2.03-2.05-3.25-1.65ZM417.22,183.81c-1.75.52-2.42,2.33-2.04,3.83.32,1.26,2.23,2.08,3.78,1.61,1.06-.32,1.86-2.31,1.49-3.64-.26-.95-2.13-2.12-3.23-1.79ZM57.76,185.18c-1.51,1.21-1.25,3.73-.2,4.48.78.56,2.84.64,3.79.06.94-.57.85-2.92.19-3.95-.52-.81-2.83-1.36-3.79-.6ZM65.31,186.42c-1.23,1.25-.81,3.62.23,4.21.79.45,2.64.61,3.3-.03.86-.84.91-2.92.35-3.79s-3.03-1.25-3.87-.39ZM73.7,186.82c-1.38.73-1.83,2.63-1.29,3.85.41.92,2.51,1.42,3.53.87.87-.47,1.33-2.5.99-3.43-.32-.89-2.34-1.76-3.24-1.28ZM80.53,187.81c-1.19.95-1.34,3.13-.73,3.92.75.96,2.98,1.37,3.88.6.76-.65,1.21-2.64.86-3.58-.4-1.08-2.83-1.89-4.01-.94ZM323.24,207.89c-10.23-1.71-18.86-1.94-27.96-1.16l11.82,20.75,16.14-19.59ZM276.89,228.06l10.77-20.69c-8.13.89-16.03,2.47-23.79,5.11l13.02,15.57ZM356.1,216.12c-8.74-3.69-16.79-5.5-25.58-7.03l7.07,23.19,18.51-16.16ZM302.65,229.21l-10.94-19.17-10.51,19.42,21.46-.25ZM333.2,233.29l-6.65-21.46-15.37,18.04,22.02,3.42ZM164.02,235.68l10.34-19.5c-7.68-1.66-15.54-1.17-23.03.82l12.69,18.68ZM248.5,233.14l7.32-17.5c-6.59,2.63-11.54,5.42-17.73,9.62l10.41,7.87ZM273.06,230.27l-12.52-14.78-7.39,17.8,19.9-3.02ZM199,226.18c-6.14-4.26-11.14-6.86-17.93-8.5l8.37,18.53,9.56-10.03ZM138.99,240.94c2.49-8.33,3.99-14.34,5.9-22.3-7.15,1.84-13.53,4.56-20.34,8l14.43,14.3ZM385.02,230.54c-7.53-4.71-14.84-8.78-22.51-11.84l3.31,22.79,19.2-10.95ZM184.98,237.17l-7.76-17.05-9.44,17.59,17.2-.54ZM361.4,241.46l-3.05-21.27-17.28,15.04,20.33,6.23ZM160.75,238.4l-11.98-17.2-5.56,20.86,17.55-3.66ZM244.57,235.2l-9.55-7.33c-4.25,3.99-8.45,8.17-12.45,13.55l22-6.23ZM213.45,241.56c-3.6-4.73-6.89-8.41-10.79-12.34l-9.33,8.85,20.12,3.49ZM115.95,250.06l2.84-20.05c-5.77,3.46-10.64,7.01-16.09,11.35l13.24,8.71ZM136,244.19l-13.47-13.33-2.42,19.19,15.89-5.86ZM387.96,253.27l-1.13-18.56-17.68,9.92,18.81,8.65ZM407.76,250.44c-5.86-6.65-10.85-11.19-17.41-15.82l1.86,19.73,15.55-3.91ZM222.95,257.4l14.9-3.95,23.4-4.63c39.52-7.81,78.89,1.73,115.28,17.77,15.54,6.85,30.33,14.09,45.32,21.9,2.66,1.39,5.36,2.36,8.68,2.33-43.06-32.19-97.95-57.42-152.65-52.04-20.53,2.02-40.04,6.69-59.5,13.04-6.31-1.45-11.89-2.72-18.09-3.12-19.22-3.41-38.32-2.35-57.27,3.21-15.36,4.51-29.84,10.57-43.71,18.46l-6.55,3.73c-9.58,5.45-18.49,11.52-27.06,18.59,5.43-2.12,11.17-2.38,16.29-4.81,34.32-16.32,70.79-35.65,109.56-34.7,10.63.26,20.65,2.35,31.4,4.22ZM112.99,253.16l-12.07-8.34-1.24,15,13.31-6.66ZM95.62,261.06l1.96-14.9c-4.4,3.75-7.7,7.19-11.23,11.52l9.28,3.38ZM425.34,274.98c-4.61-7.96-9.29-14.59-14.5-21.12l-14.6,3.4,29.1,17.72ZM92.18,263.9l-8.33-2.99c-3.11,4.54-5.56,8.19-8.08,12.86l16.41-9.87ZM253.74,332.49c.04,1.84.23,3.38.72,4.71l17.9-.12-.58-26c-.25-11.29-.78-22.61-.24-33.54,0,0,.64-3.24-1.87-2.35l-31.16-1.63c-12.18-.64-24.19.77-36.06,1.74l-.83,61.54,18.41.15.47-30.15.39-14.67c11.08-.73,21.03-.65,31.97,0l.15,5.77.72,34.55ZM129.43,321.41c20.62-.63,40.75.31,61.78.92l.12-8.44c-12.28-.86-23.96-1.45-36.51-1.43l-.15-13.85,36.84.22.15-8.42-17.9-1.36c-11.51-.87-22.88-1.15-34.37-.12-11.53,1.04-22.42,2.35-33.82,4.35-15.17,2.66-29.51,6.94-44.14,11.42l-.07,7.67,20.44-4.9c5.76-1.38,10.95-2.34,17.3-3.44l.3,11.3c-13.3,1.13-25.42,2.83-38.14,5.09l.18,5.44c15.93-2.46,31.04-3.32,46.92-3.81l21.07-.64ZM315.42,322.14c31.08-.34,61.48.25,92.53,1.58l30.2,2.59.18-20.98c-21.84-6.51-43.38-10.69-65.84-13-20.91-2.99-41.17-4.62-62.22-3.6l-28.07,1.35.15,8.86,54.47.15.19,14.45c-18.28-.61-35.87-.89-54.34-.03l-.13,8.99,32.89-.36Z"></path>
    <path fill="#56175c" d="M315.42,322.14l-32.89.36.13-8.99c18.48-.86,36.06-.59,54.34.03l-.19-14.45-54.47-.15-.15-8.86,28.07-1.35c21.05-1.01,41.3.61,62.22,3.6,22.46,2.31,44.01,6.49,65.84,13l-.18,20.98-30.2-2.59c-31.05-1.33-61.45-1.92-92.53-1.58ZM386.24,315.98l-.12-12.27-38.72-3.86.09,14.04,38.75,2.08ZM428.17,320.19l.13-9.46-31.87-5.6-.14,11.52,31.88,3.54Z"></path>
    <path fill="#56175c" d="M253.74,332.49l-.72-34.55-.15-5.77c-10.95-.64-20.89-.72-31.97,0l-.39,14.67-.47,30.15-18.41-.15.83-61.54c11.87-.97,23.88-2.38,36.06-1.74l31.16,1.63c2.51-.89,1.87,2.35,1.87,2.35-.54,10.93-.01,22.25.24,33.54l.58,26-17.9.12c-.49-1.33-.68-2.87-.72-4.71Z"></path>
    <path fill="#56175c" d="M222.95,257.4c-10.75-1.87-20.77-3.96-31.4-4.22-38.77-.95-75.24,18.38-109.56,34.7-5.12,2.43-10.86,2.7-16.29,4.81,8.57-7.07,17.47-13.14,27.06-18.59l6.55-3.73c13.87-7.89,28.35-13.95,43.71-18.46,18.94-5.56,38.04-6.62,57.27-3.21,6.2.4,11.78,1.67,18.09,3.12,19.46-6.36,38.97-11.03,59.5-13.04,54.69-5.38,109.59,19.85,152.65,52.04-3.32.03-6.02-.94-8.68-2.33-14.99-7.81-29.78-15.05-45.32-21.9-36.39-16.04-75.76-25.58-115.28-17.77l-23.4,4.63-14.9,3.95Z"></path>
    <path fill="#56175c" d="M129.43,321.41l-21.07.64c-15.88.49-30.99,1.35-46.92,3.81l-.18-5.44c12.71-2.27,24.83-3.96,38.14-5.09l-.3-11.3c-6.35,1.11-11.54,2.06-17.3,3.44l-20.44,4.9.07-7.67c14.63-4.48,28.97-8.76,44.14-11.42,11.39-2,22.29-3.31,33.82-4.35,11.49-1.03,22.86-.75,34.37.12l17.9,1.36-.15,8.42-36.84-.22.15,13.85c12.54-.02,24.23.58,36.51,1.43l-.12,8.44c-21.03-.61-41.16-1.55-61.78-.92ZM145.51,312.63l-.32-13.89c-12.59.72-24.54,2.18-37.14,3.79l.54,11.96c12.88-1.15,24.13-1.7,36.93-1.86Z"></path>
    <path fill="#56175c" d="M323.24,207.89l-16.14,19.59-11.82-20.75c9.09-.78,17.73-.55,27.96,1.16Z"></path>
    <path fill="#56175c" d="M356.1,216.12l-18.51,16.16-7.07-23.19c8.8,1.53,16.84,3.34,25.58,7.03Z"></path>
    <path fill="#56175c" d="M385.02,230.54l-19.2,10.95-3.31-22.79c7.67,3.06,14.98,7.12,22.51,11.84Z"></path>
    <path fill="#56175c" d="M164.02,235.68l-12.69-18.68c7.49-1.99,15.35-2.48,23.03-.82l-10.34,19.5Z"></path>
    <path fill="#56175c" d="M276.89,228.06l-13.02-15.57c7.76-2.64,15.66-4.22,23.79-5.11l-10.77,20.69Z"></path>
    <polygon fill="#56175c" points="333.2 233.29 311.18 229.87 326.55 211.83 333.2 233.29"></polygon>
    <path fill="#56175c" d="M138.99,240.94l-14.43-14.3c6.8-3.44,13.18-6.16,20.34-8-1.91,7.95-3.41,13.97-5.9,22.3Z"></path>
    <polygon fill="#56175c" points="361.4 241.46 341.06 235.23 358.35 220.19 361.4 241.46"></polygon>
    <polygon fill="#56175c" points="302.65 229.21 281.19 229.46 291.7 210.04 302.65 229.21"></polygon>
    <path fill="#56175c" d="M425.34,274.98l-29.1-17.72,14.6-3.4c5.21,6.53,9.88,13.16,14.5,21.12Z"></path>
    <polygon fill="#56175c" points="160.75 238.4 143.2 242.05 148.77 221.2 160.75 238.4"></polygon>
    <polygon fill="#56175c" points="387.96 253.27 369.15 244.62 386.83 234.71 387.96 253.27"></polygon>
    <path fill="#56175c" d="M407.76,250.44l-15.55,3.91-1.86-19.73c6.56,4.63,11.55,9.16,17.41,15.82Z"></path>
    <polygon fill="#56175c" points="273.06 230.27 253.16 233.29 260.54 215.49 273.06 230.27"></polygon>
    <polygon fill="#56175c" points="184.98 237.17 167.77 237.71 177.21 220.12 184.98 237.17"></polygon>
    <path fill="#56175c" d="M115.95,250.06l-13.24-8.71c5.45-4.34,10.32-7.89,16.09-11.35l-2.84,20.05Z"></path>
    <polygon fill="#56175c" points="136 244.19 120.1 250.06 122.52 230.86 136 244.19"></polygon>
    <path fill="#56175c" d="M199,226.18l-9.56,10.03-8.37-18.53c6.79,1.64,11.79,4.25,17.93,8.5Z"></path>
    <path fill="#56175c" d="M248.5,233.14l-10.41-7.87c6.19-4.21,11.14-6.99,17.73-9.62l-7.32,17.5Z"></path>
    <path fill="#56175c" d="M244.57,235.2l-22,6.23c3.99-5.38,8.19-9.56,12.45-13.55l9.55,7.33Z"></path>
    <path fill="#56175c" d="M213.45,241.56l-20.12-3.49,9.33-8.85c3.9,3.93,7.19,7.61,10.79,12.34Z"></path>
    <polygon fill="#56175c" points="112.99 253.16 99.68 259.82 100.92 244.82 112.99 253.16"></polygon>
    <path fill="#56175c" d="M95.62,261.06l-9.28-3.38c3.53-4.33,6.83-7.77,11.23-11.52l-1.96,14.9Z"></path>
    <path fill="#56175c" d="M92.18,263.9l-16.41,9.87c2.53-4.67,4.97-8.33,8.08-12.86l8.33,2.99Z"></path>
    <path fill="#56175c" d="M57.19,167.42c1.4-.62,3.53.07,4.25,1.28.68,1.14.3,3.4-.94,4.2-1.32.86-3.52.21-4.26-.91-.93-1.4-.71-3.84.94-4.58Z"></path>
    <path fill="#56175c" d="M444.15,165.84c.16,1.34-.8,3.31-1.75,3.75-1.24.56-3.64.02-4.06-1.52-.46-1.66.31-3.58,1.36-4.05,1.55-.7,4.13-.85,4.45,1.83Z"></path>
    <path fill="#56175c" d="M413.93,166.67c1.38-.61,3.48.07,3.97,1.1.69,1.44.24,3.61-.91,4.28-1.45.84-3.72.31-4.35-.92-.72-1.42-.3-3.76,1.29-4.45Z"></path>
    <path fill="#56175c" d="M83.2,170.66c1.59-.52,3.66.23,4.02,1.48.39,1.34-.24,3.32-1.39,3.93-1.2.63-3.19.16-3.78-.78-.95-1.49-.47-4.1,1.15-4.64Z"></path>
    <path fill="#56175c" d="M432.42,164.81c1.74-.31,3.09,1.08,3.21,2.66.11,1.32-1.01,2.94-2.57,3.28-1.1.24-2.86-.86-3.18-2.13-.39-1.55.73-3.49,2.54-3.81Z"></path>
    <path fill="#56175c" d="M66.06,168.69c1.3-.58,3.46.03,3.92.97.64,1.32.28,3.52-.87,4.26-1.2.78-3.42.2-4.16-1.04-.67-1.12-.3-3.57,1.11-4.19Z"></path>
    <path fill="#56175c" d="M414.26,180c-.79-1.32-.28-3.99,1.5-4.61,1.39-.48,3.08.54,3.43,1.86.26.96-.27,2.77-1.14,3.4-.82.59-3.23.3-3.79-.66Z"></path>
    <path fill="#56175c" d="M422.57,166.09c1.69-.98,3.54-.24,4.1,1.13.43,1.06,0,3.32-1.04,3.84-1.15.57-3.06.33-3.75-.4-1.01-1.08-.88-3.66.69-4.57Z"></path>
    <path fill="#56175c" d="M423.43,175.05c1.43-.69,3.24-.29,3.93.97.53.96.03,2.96-1.14,3.87-.9.69-3.05.27-3.72-.81-.71-1.16-.33-3.42.93-4.02Z"></path>
    <path fill="#56175c" d="M74.21,170.12c1.33-.94,3.85-.41,4.32.61.55,1.19.23,3.25-.81,4.13-.84.7-3.01.47-3.76-.31-.92-.96-1.07-3.49.26-4.43Z"></path>
    <path fill="#56175c" d="M58.4,176.36c1.12-.37,3.09.78,3.36,1.73.38,1.35-.41,3.43-1.49,3.74-1.3.36-3.22-.37-3.63-1.28-.64-1.41-.31-3.5,1.77-4.19Z"></path>
    <path fill="#56175c" d="M417.22,183.81c1.1-.33,2.96.84,3.23,1.79.37,1.34-.43,3.32-1.49,3.64-1.55.47-3.45-.35-3.78-1.61-.38-1.49.29-3.31,2.04-3.83Z"></path>
    <path fill="#56175c" d="M66.1,177.52c1.21-.48,3.18.21,3.71,1.21.51.97-.07,3.24-1.05,3.8-1.03.58-3.28.07-3.84-.87-.76-1.28-.33-3.54,1.18-4.14Z"></path>
    <path fill="#56175c" d="M440.73,181.34c1.12-.17,2.68,1.27,2.7,2.23.03,1.38-1.09,3.15-2.16,3.29-1.57.21-3.26-.9-3.3-2.29-.05-1.47.99-2.95,2.76-3.23Z"></path>
    <path fill="#56175c" d="M81.87,179.55c1.14-.7,3.32.11,3.83,1.12.48.97-.13,3.14-1.06,3.69-.99.59-2.95.3-3.6-.45-.77-.89-.68-3.44.84-4.37Z"></path>
    <path fill="#56175c" d="M440.05,173.03c1.31-.48,3.29.53,3.45,1.56.21,1.37-.35,3.19-1.27,3.66-1.21.63-3.14,0-3.6-.9-.73-1.45-.26-3.7,1.42-4.32Z"></path>
    <path fill="#56175c" d="M424.81,183.25c1.22-.41,2.97.57,3.25,1.65.33,1.25-.45,2.97-1.64,3.47-1.25.52-3.09-.26-3.48-1.5s.38-3.12,1.87-3.61Z"></path>
    <path fill="#56175c" d="M80.53,187.81c1.18-.94,3.6-.14,4.01.94.35.94-.1,2.93-.86,3.58-.9.77-3.13.36-3.88-.6-.61-.79-.45-2.97.73-3.92Z"></path>
    <path fill="#56175c" d="M57.76,185.18c.96-.77,3.26-.22,3.79.6.66,1.03.75,3.38-.19,3.95-.95.58-3.01.5-3.79-.06-1.06-.76-1.32-3.27.2-4.48Z"></path>
    <path fill="#56175c" d="M432.91,173.77c1.16-.3,2.87,1.6,2.79,2.6-.11,1.26-1.17,2.64-2.58,2.92-.99.2-2.61-1.1-2.77-2.3-.15-1.14.78-2.75,2.57-3.22Z"></path>
    <path fill="#56175c" d="M65.31,186.42c.84-.86,3.33-.46,3.87.39s.52,2.95-.35,3.79c-.65.64-2.51.48-3.3.03-1.04-.59-1.46-2.97-.23-4.21Z"></path>
    <path fill="#56175c" d="M74.35,178.67c.94-.47,3.01.3,3.28,1.13.35,1.05-.05,3.12-.94,3.59-1.05.56-3.19-.02-3.62-.93-.54-1.13-.03-3.14,1.28-3.79Z"></path>
    <path fill="#56175c" d="M432.4,182.49c1.01-.41,2.94.44,3.17,1.29.31,1.19-.08,2.99-.99,3.41-1.21.56-3.29.06-3.66-.87-.51-1.29.05-3.26,1.48-3.84Z"></path>
    <path fill="#56175c" d="M73.7,186.82c.9-.47,2.91.39,3.24,1.28.34.94-.12,2.97-.99,3.43-1.03.55-3.13.05-3.53-.87-.54-1.22-.09-3.12,1.29-3.85Z"></path>
    <polygon fill="#dcb456" points="386.24 315.98 347.49 313.89 347.39 299.85 386.11 303.71 386.24 315.98"></polygon>
    <polygon fill="#dcb456" points="428.17 320.19 396.29 316.65 396.43 305.13 428.3 310.73 428.17 320.19"></polygon>
    <path fill="#dcb456" d="M145.51,312.63c-12.79.15-24.04.71-36.93,1.86l-.54-11.96c12.6-1.61,24.55-3.07,37.14-3.79l.32,13.89Z"></path>
  </g>
</svg>
